# xmcd
#
# Track frame offsets: 
#        150
#        17597
#        36372
#        51688
#        65896
#        83896
#        97698
#        112814
#        131983
#        156365
#        175048
#        189792
#        203714
#
# Disc length: 2801 seconds
#
# Revision: 0
# Processed by: cddbd v1.5.2PL0 Copyright (c) Steve Scherf et al.
# Submitted via: ExactAudioCopy v0.95b4
#
DISCID=ad0aef0d
DTITLE=The Windy City Strugglers - Shine On
DYEAR=2008
DGENRE=Blues
TTITLE0=Lazy Tommy
TTITLE1=Lucky Man
TTITLE2=Divided World
TTITLE3=Wild Love
TTITLE4=Unlikely Friends
TTITLE5=Tintin's In Love
TTITLE6=Roll Me Fast And Slow
TTITLE7=Bluer Than You'll Ever Be
TTITLE8=Taxi Driver
TTITLE9=The Old Gods
TTITLE10=Come On June
TTITLE11=If I Was Thirsty
TTITLE12=Untitled
EXTD=
EXTT0=
EXTT1=
EXTT2=
EXTT3=
EXTT4=
EXTT5=
EXTT6=
EXTT7=
EXTT8=
EXTT9=
EXTT10=
EXTT11=
EXTT12=
PLAYORDER=
